<?xml version="1.0" standalone="no"?><!DOCTYPE svg PUBLIC "-//W3C//DTD SVG 1.1//EN" "http://www.w3.org/Graphics/SVG/1.1/DTD/svg11.dtd"><svg t="1566871225462" class="icon" viewBox="0 0 1024 1024" version="1.1" xmlns="http://www.w3.org/2000/svg" p-id="1129" xmlns:xlink="http://www.w3.org/1999/xlink" width="32" height="32"><defs><style type="text/css"></style></defs><path d="M202.971429 424.228571c10.971429 0 18.285714-7.314286 18.285714-18.285714V237.714286c0-9.142857 7.314286-16.457143 16.457143-16.457143h170.057143c10.971429 0 18.285714-7.314286 18.285714-18.285714s-7.314286-18.285714-18.285714-18.285715H237.714286c-29.257143 0-53.028571 23.771429-53.028572 53.028572v170.057143c0 9.142857 9.142857 16.457143 18.285715 16.457142zM407.771429 802.742857H237.714286c-9.142857 0-16.457143-7.314286-16.457143-16.457143v-170.057143c0-10.971429-7.314286-18.285714-18.285714-18.285714s-18.285714 7.314286-18.285715 18.285714V786.285714c0 29.257143 23.771429 53.028571 53.028572 53.028572h170.057143c10.971429 0 18.285714-7.314286 18.285714-18.285715s-7.314286-18.285714-18.285714-18.285714zM822.857143 599.771429c-10.971429 0-18.285714 7.314286-18.285714 18.285714V786.285714c0 9.142857-7.314286 16.457143-16.457143 16.457143h-170.057143c-10.971429 0-18.285714 7.314286-18.285714 18.285714s7.314286 18.285714 18.285714 18.285715h170.057143c29.257143 0 53.028571-23.771429 53.028571-53.028572v-170.057143c0-9.142857-7.314286-16.457143-18.285714-16.457142zM788.114286 184.685714h-170.057143c-10.971429 0-18.285714 7.314286-18.285714 18.285715s7.314286 18.285714 18.285714 18.285714h170.057143c9.142857 0 16.457143 7.314286 16.457143 16.457143v170.057143c0 10.971429 7.314286 18.285714 18.285714 18.285714s18.285714-7.314286 18.285714-18.285714V237.714286c0-29.257143-23.771429-53.028571-53.028571-53.028572zM864.914286 493.714286c-10.971429 0-18.285714 7.314286-18.285715 18.285714s9.142857 18.285714 18.285715 18.285714c10.971429 0 18.285714-7.314286 18.285714-18.285714s-9.142857-18.285714-18.285714-18.285714zM822.857143 512c0-10.971429-7.314286-18.285714-18.285714-18.285714H159.085714c-10.971429 0-18.285714 7.314286-18.285714 18.285714s7.314286 18.285714 18.285714 18.285714H804.571429c10.971429 0 18.285714-7.314286 18.285714-18.285714z" fill="#5599FF" p-id="1130"></path></svg>