<?xml version="1.0" standalone="no"?><!DOCTYPE svg PUBLIC "-//W3C//DTD SVG 1.1//EN" "http://www.w3.org/Graphics/SVG/1.1/DTD/svg11.dtd"><svg t="1566872008519" class="icon" viewBox="0 0 1024 1024" version="1.1" xmlns="http://www.w3.org/2000/svg" p-id="1509" xmlns:xlink="http://www.w3.org/1999/xlink" width="32" height="32"><defs><style type="text/css"></style></defs><path d="M512 896a236.688 236.688 0 0 1-168.432-69.76l-145.808-145.808C152.768 635.44 128 575.632 128 512s24.768-123.44 69.76-168.432l145.808-145.808C388.56 152.768 448.368 128 512 128s123.44 24.768 168.416 69.76l145.808 145.808c92.88 92.88 92.88 244 0 336.848l-145.808 145.808A236.56 236.56 0 0 1 512 896z m0-704a173.12 173.12 0 0 0-123.184 51.008l-145.808 145.808C210.112 421.728 192 465.472 192 512s18.112 90.272 51.008 123.168l145.808 145.808C421.712 813.872 465.472 832 512 832s90.272-18.128 123.168-51.008l145.808-145.808c67.904-67.92 67.904-178.432 0-246.352l-145.808-145.808A172.992 172.992 0 0 0 512 192z" p-id="1510" fill="#9955FF"></path><path d="M640 480h-96.016v-96a32 32 0 0 0-64 0v96h-96a32 32 0 0 0 0 64h96v96a32 32 0 0 0 64 0v-96H640a32 32 0 0 0 0-64z" p-id="1511" fill="#9955FF"></path></svg>