<?xml version="1.0" standalone="no"?><!DOCTYPE svg PUBLIC "-//W3C//DTD SVG 1.1//EN" "http://www.w3.org/Graphics/SVG/1.1/DTD/svg11.dtd"><svg t="1566872640196" class="icon" viewBox="0 0 1024 1024" version="1.1" xmlns="http://www.w3.org/2000/svg" p-id="5574" xmlns:xlink="http://www.w3.org/1999/xlink" width="32" height="32"><defs><style type="text/css"></style></defs><path d="M873.039311 958.64348 150.166603 958.64348c-48.583508 0-88.10871-39.562041-88.10871-88.190575L62.057893 194.971553c0-48.592718 39.525202-88.126106 88.10871-88.126106l722.872708 0c48.623417 0 88.180342 39.533388 88.180342 88.126106l0 675.481352C961.219653 919.081439 921.662729 958.64348 873.039311 958.64348zM150.166603 112.985284c-45.197388 0-81.968873 36.778648-81.968873 81.986269l0 675.481352c0 45.242414 36.771485 82.050738 81.968873 82.050738l722.872708 0c45.237297 0 82.040505-36.808324 82.040505-82.050738L955.079816 194.971553c0-45.207621-36.803207-81.986269-82.040505-81.986269L150.166603 112.985284z" p-id="5575" fill="#4400B3"></path><path d="M383.891785 525.588483l-85.055165 0c-48.632627 0-88.198761-39.557948-88.198761-88.180342l0-85.056188c0-48.627511 39.566134-88.188528 88.198761-88.188528l85.055165 0c48.623417 0 88.181365 39.561018 88.181365 88.188528l0 85.056188C472.07315 486.031559 432.516226 525.588483 383.891785 525.588483zM298.836621 270.303262c-45.24753 0-82.058924 36.807301-82.058924 82.048691l0 85.056188c0 45.237297 36.811394 82.040505 82.058924 82.040505l85.055165 0c45.23832 0 82.041528-36.803207 82.041528-82.040505l0-85.056188c0-45.24139-36.803207-82.048691-82.041528-82.048691L298.836621 270.303262z" p-id="5576" fill="#4400B3"></path><path d="M559.325353 468.306872l255.260661 0 0 6.139837-255.260661 0 0-6.139837Z" p-id="5577" fill="#4400B3"></path><path d="M192.579575 646.11144l638.118396 0 0 6.139837-638.118396 0 0-6.139837Z" p-id="5578" fill="#4400B3"></path><path d="M192.579575 782.327822l638.118396 0 0 6.139837-638.118396 0 0-6.139837Z" p-id="5579" fill="#4400B3"></path><path d="M559.325353 319.953056l255.260661 0 0 6.139837-255.260661 0 0-6.139837Z" p-id="5580" fill="#4400B3"></path></svg>