<?xml version="1.0" standalone="no"?><!DOCTYPE svg PUBLIC "-//W3C//DTD SVG 1.1//EN" "http://www.w3.org/Graphics/SVG/1.1/DTD/svg11.dtd"><svg t="1566872970910" class="icon" viewBox="0 0 1024 1024" version="1.1" xmlns="http://www.w3.org/2000/svg" p-id="7409" xmlns:xlink="http://www.w3.org/1999/xlink" width="32" height="32"><defs><style type="text/css"></style></defs><path d="M342.4 107.40266667c33.87733333 22.73066667 65.51466667 30.19733333 97.06666667 42.82666666 133.52533333 53.33333333 189.73866667 33.984 234.34666666-6.4 31.89333333-28.8 73.06666667-47.84 124.93866667-47.66933333 64.24533333 0.18133333 79.456 16 106.66666667 39.79733333 15.392 13.42933333 40.40533333 24.10666667 56.27733333 11.456s16-33.00266667 0.192-45.728c-32.18133333-25.024-68.61866667-63.81866667-164.832-67.08266666C722.13333333 32 701.33333333 44.11733333 644.128 82.66666667c-15.60533333 10.51733333-41.17333333 46.08-66.86933333 46.51733333-67.73333333 1.06666667-66.66666667-19.62666667-97.29066667-35.79733333C442.57066667 73.6 433.06666667 58.48533333 378.25066667 58.48533333c-14.80533333 0-28.45866667 6.21866667-35.82933334 16.30933334s-10.38933333 25.632-0.02133333 32.608z m50.13333333 500.17066666a23.89333333 23.89333333 0 1 0-23.89333333-23.89333333 23.89333333 23.89333333 0 0 0 23.89333333 23.89333333z m238.93333334 0a23.89333333 23.89333333 0 1 0-23.89333334-23.89333333 23.89333333 23.89333333 0 0 0 23.89333334 23.89333333z m238.93333333 0a23.89333333 23.89333333 0 1 0-23.89333333-23.89333333 23.89333333 23.89333333 0 0 0 23.89333333 23.89333333z m119.46666667-358.4a23.91466667 23.91466667 0 0 0-0.81066667-6.18666666 22.528 22.528 0 0 0-6.144-11.264 22.784 22.784 0 0 0-21.088-6.08 23.92533333 23.92533333 0 0 0-17.77066667 14.016L750.93333333 470.06933333V249.17333333a23.91466667 23.91466667 0 0 0-0.82133333-6.21866666 22.51733333 22.51733333 0 0 0-6.144-11.232 22.80533333 22.80533333 0 0 0-21.152-6.06933334 23.92533333 23.92533333 0 0 0-17.68533333 13.96266667L512 470.08V249.17333333a23.904 23.904 0 0 0-0.85333333-6.32533333 22.51733333 22.51733333 0 0 0-6.112-11.12533333 22.79466667 22.79466667 0 0 0-21.13066667-6.06933334 23.92533333 23.92533333 0 0 0-17.70666667 13.99466667L273.06666667 470.06933333V57.6a23.46666667 23.46666667 0 0 0-23.46666667-23.46666667H57.6a23.46666667 23.46666667 0 0 0-23.46666667 23.46666667v909.12A23.14666667 23.14666667 0 0 0 57.28 989.86666667h909.44a23.14666667 23.14666667 0 0 0 23.14666667-23.14666667v-0.74666667zM225.28 529.38666667a22.69866667 22.69866667 0 0 0 0 14.47466666V943.57333333H81.92V81.92h143.36z m238.93333333 0a22.688 22.688 0 0 0 0 14.38933333V943.57333333H273.06666667V540.59733333L464.21333333 312.53333333z m238.93333334 0a22.688 22.688 0 0 0 0 14.47466666V943.57333333H512V540.608L703.14666667 312.53333333z m238.93333333 414.18666666H750.93333333V540.608L942.08 312.53333333z" p-id="7410" fill="#9999FF"></path></svg>