<?xml version="1.0" standalone="no"?><!DOCTYPE svg PUBLIC "-//W3C//DTD SVG 1.1//EN" "http://www.w3.org/Graphics/SVG/1.1/DTD/svg11.dtd"><svg t="1567493055033" class="icon" viewBox="0 0 1024 1024" version="1.1" xmlns="http://www.w3.org/2000/svg" p-id="2990" xmlns:xlink="http://www.w3.org/1999/xlink" width="32" height="32"><defs><style type="text/css"></style></defs><path d="M40.394823 391.378855a40.44597 40.44597 0 0 0 40.44597-40.445969v-245.747664a24.574766 24.574766 0 0 1 24.267582-24.267582H358.38206A40.44597 40.44597 0 1 0 358.38206 0.025701H105.108375A105.210718 105.210718 0 0 0 0.000051 105.134025v245.747663a40.44597 40.44597 0 0 0 40.394772 40.497167zM358.38206 943.133557H105.108375a24.574766 24.574766 0 0 1-24.267582-24.267582v-277.541267a40.44597 40.44597 0 0 0-80.840742 0v277.541267A105.210718 105.210718 0 0 0 105.108375 1023.974299H358.38206a40.44597 40.44597 0 1 0 0-80.840742zM983.553877 595.554206a40.394772 40.394772 0 0 0-40.44597 40.394772v282.916997a24.574766 24.574766 0 0 1-24.267582 24.267582h-267.506571a40.44597 40.44597 0 1 0 0 80.840742h267.506571A105.210718 105.210718 0 0 0 1023.948649 918.865975v-282.916997a40.394772 40.394772 0 0 0-40.394772-40.394772zM918.840325 0.025701h-267.506571a40.44597 40.44597 0 1 0 0 80.840742h267.506571a24.574766 24.574766 0 0 1 24.267582 24.267582v245.747663a40.44597 40.44597 0 1 0 80.840742 0v-245.747663A105.210718 105.210718 0 0 0 918.840325 0.025701zM983.553877 458.089106H40.394823a40.44597 40.44597 0 0 0 0 80.840742h943.159054a40.44597 40.44597 0 0 0 0-80.840742z" p-id="2991"></path></svg>