<?xml version="1.0" standalone="no"?><!DOCTYPE svg PUBLIC "-//W3C//DTD SVG 1.1//EN" "http://www.w3.org/Graphics/SVG/1.1/DTD/svg11.dtd"><svg t="1566873271861" class="icon" viewBox="0 0 1024 1024" version="1.1" xmlns="http://www.w3.org/2000/svg" p-id="9908" xmlns:xlink="http://www.w3.org/1999/xlink" width="32" height="32"><defs><style type="text/css"></style></defs><path d="M929.8 290.3c-16-19.6-36-42.8-53.5-62.1-1.1-1.2-2.3-2.3-3.6-3.2-17.2-12.8-37.3-1-44.9 3.5-8.1 4.8-18.1 11.8-29.7 21.1-17.3 13.7-33.2 28-36.5 31-24.3 19.5-44.9 36-64.8 52C656.4 365 621.4 393 572 433.1l-0.1 0.1c-0.1 0.1-0.2 0.2-0.4 0.3-0.2 0.2-0.5 0.4-0.7 0.6-0.1 0.1-0.3 0.2-0.4 0.4l-0.6 0.6-0.4 0.4c-0.2 0.2-0.5 0.5-0.7 0.8-0.1 0.1-0.2 0.2-0.2 0.3-0.3 0.4-0.6 0.7-0.9 1.1-0.1 0.1-0.1 0.2-0.2 0.3-0.2 0.3-0.4 0.6-0.6 0.8-0.1 0.1-0.2 0.3-0.3 0.4-0.2 0.3-0.3 0.5-0.5 0.8 0 0.1-0.1 0.2-0.2 0.3-2 3.6-49.8 88.7-69.4 125.9-4.7 8.9-3.6 19.8 2.8 27.5 4.8 5.9 12 9.1 19.3 9.1 2.4 0 4.8-0.3 7.2-1 40.1-12 118.8-37.9 137.5-44.1 0.2-0.1 0.5-0.2 0.7-0.3 0.4-0.1 0.7-0.3 1.1-0.4 0.2-0.1 0.5-0.2 0.7-0.3 0.4-0.2 0.8-0.4 1.1-0.6 0.2-0.1 0.4-0.2 0.5-0.3 0.5-0.3 1.1-0.6 1.6-1 0.1-0.1 0.3-0.2 0.4-0.3l1.2-0.9c0.1-0.1 0.2-0.1 0.3-0.2 23.1-18.5 42.8-34.2 61.9-49.4 41.5-33 77.4-61.6 128.4-103.1 1.7-1.4 17.4-13.9 33.6-28.9 34.5-32.1 40.4-47 41.6-58.3 1.1-8.7-1.3-17-6.5-23.4zM591.6 496.5c6.9 8.4 13.8 16.7 20.7 25.1-12.8 4.2-27.5 9-42.2 13.7 7.5-13.6 15-27.2 21.5-38.8z m110.1-31.7c-13.7 10.9-27.7 22-43 34.3-8.9-10.6-19.7-23.6-30-36.1-1.9-2.3-3.8-4.7-5.7-7 39.5-32 70.2-56.6 105-84.5 14.6-11.7 29.7-23.8 46.2-37.1 3.1 3.8 6.2 7.6 9.2 11.2 9 10.9 17.6 21.5 26.7 32.3-40.9 33.2-72.5 58.3-108.4 86.9zM848.9 346l-36.3-43.9c14.3-12.1 28-22.7 37.2-28.7 11.2 12.6 22.8 26.1 33.2 38.7-6.6 8.3-19.4 21.1-34.1 33.9z m-92.4 229.3c-16.6 0-30 13.4-30 30V815h-538V482c0-3.9 3.1-7 7-7h256.2c16.6 0 30-13.4 30-30s-13.4-30-30-30H299.2V252c0-40.3 32.8-73 73-73h181c34.6 0 62.7 28.1 62.7 62.7v7.3c0 16.6 13.4 30 30 30s30-13.4 30-30v-7.3c0-67.7-55-122.7-122.7-122.7h-181c-73.4 0-133 59.7-133 133v163h-43.6c-36.9 0-67 30.1-67 67v393h658V605.3c-0.1-16.5-13.5-30-30.1-30z m-299 187.1c16.5 0 30-13.5 30-30v-68.9l0.9-0.3c10.4-3.8 15.7-15.3 11.8-25.7-3.8-10.4-15.3-15.7-25.7-11.8-12.8 4.8-21.8 4.8-29.9 0.2-14.2-8-19.2-26.1-11.2-40.3 4.7-8.3 11.9-12.9 23.5-15 10.9-2 18.1-12.4 16.1-23.3s-12.4-18.1-23.3-16.1c-23.4 4.3-40.6 16-51.1 34.7-18.8 33.4-7 75.9 26.4 94.8 0.8 0.5 1.7 0.9 2.5 1.4v70.3c0 16.5 13.5 30 30 30z" p-id="9909" fill="#FFB3FF"></path></svg>